<svg width="12" height="9" viewBox="0 0 12 9" fill="none" xmlns="http://www.w3.org/2000/svg">
<path d="M11.0429 0.237997C10.9682 0.162623 10.8792 0.102796 10.7812 0.0619689C10.6832 0.0211417 10.5781 0.00012207 10.472 0.00012207C10.3658 0.00012207 10.2607 0.0211417 10.1627 0.0619689C10.0647 0.102796 9.97576 0.162623 9.901 0.237997L3.90986 6.23718L1.39278 3.71205C1.31516 3.63707 1.22353 3.57812 1.12312 3.53855C1.02271 3.49898 0.915498 3.47957 0.807593 3.48144C0.699688 3.48331 0.593207 3.50641 0.49423 3.54943C0.395253 3.59245 0.305718 3.65454 0.230737 3.73216C0.155757 3.80978 0.096799 3.90141 0.0572302 4.00181C0.0176613 4.10222 -0.0017439 4.20944 0.000122974 4.31734C0.00198985 4.42525 0.0250922 4.53173 0.0681105 4.6307C0.111129 4.72968 0.173221 4.81922 0.250842 4.8942L3.33889 7.98225C3.41365 8.05762 3.50259 8.11745 3.60059 8.15828C3.69859 8.1991 3.8037 8.22012 3.90986 8.22012C4.01602 8.22012 4.12113 8.1991 4.21913 8.15828C4.31712 8.11745 4.40607 8.05762 4.48083 7.98225L11.0429 1.42014C11.1246 1.34484 11.1897 1.25344 11.2343 1.15171C11.2788 1.04998 11.3018 0.940128 11.3018 0.829069C11.3018 0.718011 11.2788 0.608156 11.2343 0.506427C11.1897 0.404699 11.1246 0.313302 11.0429 0.237997Z" fill="#D1EDF5"/>
</svg>
